<mxfile host="app.diagrams.net" modified="2023-04-11T01:49:52.794Z" agent="Mozilla/5.0 (Windows NT 10.0; Win64; x64; rv:109.0) Gecko/20100101 Firefox/111.0" etag="CTVjNPpikt_EdvbIWmJ4" version="21.1.2" type="device">
  <diagram name="Page-1" id="6xlHseZg__uQxYBexC1Y">
    <mxGraphModel dx="1438" dy="628" grid="1" gridSize="10" guides="1" tooltips="1" connect="1" arrows="1" fold="1" page="1" pageScale="1" pageWidth="850" pageHeight="1100" math="0" shadow="0">
      <root>
        <mxCell id="0" />
        <mxCell id="1" parent="0" />
        <mxCell id="2tTRAXas-IIGPnDZ_Wnu-1" value="Program" style="swimlane;fontStyle=1;align=center;verticalAlign=top;childLayout=stackLayout;horizontal=1;startSize=26;horizontalStack=0;resizeParent=1;resizeParentMax=0;resizeLast=0;collapsible=1;marginBottom=0;whiteSpace=wrap;html=1;" vertex="1" parent="1">
          <mxGeometry x="130" y="70" width="320" height="90" as="geometry" />
        </mxCell>
        <mxCell id="2tTRAXas-IIGPnDZ_Wnu-3" value="" style="line;strokeWidth=1;fillColor=none;align=left;verticalAlign=middle;spacingTop=-1;spacingLeft=3;spacingRight=3;rotatable=0;labelPosition=right;points=[];portConstraint=eastwest;strokeColor=inherit;" vertex="1" parent="2tTRAXas-IIGPnDZ_Wnu-1">
          <mxGeometry y="26" width="320" height="8" as="geometry" />
        </mxCell>
        <mxCell id="2tTRAXas-IIGPnDZ_Wnu-4" value="&lt;div&gt;+ Main(string[] args): void&lt;/div&gt;&lt;div&gt;+ chooseSearch(Agent ai, string searchName): void&lt;br&gt;&lt;/div&gt;" style="text;strokeColor=none;fillColor=none;align=left;verticalAlign=top;spacingLeft=4;spacingRight=4;overflow=hidden;rotatable=0;points=[[0,0.5],[1,0.5]];portConstraint=eastwest;whiteSpace=wrap;html=1;" vertex="1" parent="2tTRAXas-IIGPnDZ_Wnu-1">
          <mxGeometry y="34" width="320" height="56" as="geometry" />
        </mxCell>
        <mxCell id="2tTRAXas-IIGPnDZ_Wnu-5" value="Percept" style="swimlane;fontStyle=1;align=center;verticalAlign=top;childLayout=stackLayout;horizontal=1;startSize=26;horizontalStack=0;resizeParent=1;resizeParentMax=0;resizeLast=0;collapsible=1;marginBottom=0;whiteSpace=wrap;html=1;" vertex="1" parent="1">
          <mxGeometry x="-300" y="190" width="170" height="220" as="geometry" />
        </mxCell>
        <mxCell id="2tTRAXas-IIGPnDZ_Wnu-6" value="&lt;div&gt;- _line: string&lt;/div&gt;&lt;div&gt;-_file: StreamReader&lt;/div&gt;&lt;div&gt;-_wall: List&amp;lt;string&amp;gt;&lt;/div&gt;&lt;div&gt;-_map: string&lt;/div&gt;&lt;div&gt;-_initialState: string&lt;/div&gt;&lt;div&gt;-_goalState: string&lt;br&gt;&lt;/div&gt;&lt;div&gt;&lt;br&gt;&lt;/div&gt;" style="text;strokeColor=none;fillColor=none;align=left;verticalAlign=top;spacingLeft=4;spacingRight=4;overflow=hidden;rotatable=0;points=[[0,0.5],[1,0.5]];portConstraint=eastwest;whiteSpace=wrap;html=1;" vertex="1" parent="2tTRAXas-IIGPnDZ_Wnu-5">
          <mxGeometry y="26" width="170" height="94" as="geometry" />
        </mxCell>
        <mxCell id="2tTRAXas-IIGPnDZ_Wnu-7" value="" style="line;strokeWidth=1;fillColor=none;align=left;verticalAlign=middle;spacingTop=-1;spacingLeft=3;spacingRight=3;rotatable=0;labelPosition=right;points=[];portConstraint=eastwest;strokeColor=inherit;" vertex="1" parent="2tTRAXas-IIGPnDZ_Wnu-5">
          <mxGeometry y="120" width="170" height="8" as="geometry" />
        </mxCell>
        <mxCell id="2tTRAXas-IIGPnDZ_Wnu-8" value="&lt;div&gt;+ percept(string testfile)&lt;/div&gt;&lt;div&gt;+&amp;lt;&amp;lt;get&amp;gt;&amp;gt;Wall: List&amp;lt;string&amp;gt;&lt;/div&gt;&lt;div&gt;+&amp;lt;&amp;lt;get&amp;gt;&amp;gt;InitialState: string&lt;/div&gt;&lt;div&gt;+&amp;lt;&amp;lt;get&amp;gt;&amp;gt;GoalState: string&lt;/div&gt;&lt;div&gt;+&amp;lt;&amp;lt;get&amp;gt;&amp;gt;Map: string&lt;/div&gt;&lt;div&gt;+populateData(): void&lt;br&gt;&lt;/div&gt;" style="text;strokeColor=none;fillColor=none;align=left;verticalAlign=top;spacingLeft=4;spacingRight=4;overflow=hidden;rotatable=0;points=[[0,0.5],[1,0.5]];portConstraint=eastwest;whiteSpace=wrap;html=1;" vertex="1" parent="2tTRAXas-IIGPnDZ_Wnu-5">
          <mxGeometry y="128" width="170" height="92" as="geometry" />
        </mxCell>
        <mxCell id="2tTRAXas-IIGPnDZ_Wnu-13" value="Use" style="endArrow=open;endSize=12;dashed=1;html=1;rounded=0;" edge="1" parent="1" source="2tTRAXas-IIGPnDZ_Wnu-1" target="2tTRAXas-IIGPnDZ_Wnu-5">
          <mxGeometry width="160" relative="1" as="geometry">
            <mxPoint x="490" y="220" as="sourcePoint" />
            <mxPoint x="650" y="220" as="targetPoint" />
          </mxGeometry>
        </mxCell>
        <mxCell id="2tTRAXas-IIGPnDZ_Wnu-15" value="Map" style="swimlane;fontStyle=1;align=center;verticalAlign=top;childLayout=stackLayout;horizontal=1;startSize=26;horizontalStack=0;resizeParent=1;resizeParentMax=0;resizeLast=0;collapsible=1;marginBottom=0;whiteSpace=wrap;html=1;" vertex="1" parent="1">
          <mxGeometry x="170" y="270" width="170" height="270" as="geometry" />
        </mxCell>
        <mxCell id="2tTRAXas-IIGPnDZ_Wnu-16" value="&lt;div&gt;- _room: List&amp;lt;room&amp;gt;&lt;br&gt;&lt;/div&gt;&lt;div&gt;-_width: int&lt;/div&gt;&lt;div&gt;-_length: int&lt;br&gt;&lt;/div&gt;&lt;div&gt;-_wall: List&amp;lt;string&amp;gt;&lt;/div&gt;&lt;div&gt;-_wallList: List&amp;lt;room&amp;gt;&lt;/div&gt;" style="text;strokeColor=none;fillColor=none;align=left;verticalAlign=top;spacingLeft=4;spacingRight=4;overflow=hidden;rotatable=0;points=[[0,0.5],[1,0.5]];portConstraint=eastwest;whiteSpace=wrap;html=1;" vertex="1" parent="2tTRAXas-IIGPnDZ_Wnu-15">
          <mxGeometry y="26" width="170" height="84" as="geometry" />
        </mxCell>
        <mxCell id="2tTRAXas-IIGPnDZ_Wnu-17" value="" style="line;strokeWidth=1;fillColor=none;align=left;verticalAlign=middle;spacingTop=-1;spacingLeft=3;spacingRight=3;rotatable=0;labelPosition=right;points=[];portConstraint=eastwest;strokeColor=inherit;" vertex="1" parent="2tTRAXas-IIGPnDZ_Wnu-15">
          <mxGeometry y="110" width="170" height="8" as="geometry" />
        </mxCell>
        <mxCell id="2tTRAXas-IIGPnDZ_Wnu-18" value="&lt;div&gt;+&amp;lt;&amp;lt;get&amp;gt;&amp;gt;Room: List&amp;lt;room&amp;gt;&lt;/div&gt;&lt;div&gt;+&amp;lt;&amp;lt;get&amp;gt;&amp;gt;Width: int&lt;/div&gt;&lt;div&gt;+&amp;lt;&amp;lt;get&amp;gt;&amp;gt;Length: int&lt;/div&gt;&lt;div&gt;+&amp;lt;&amp;lt;get&amp;gt;&amp;gt;WallList: list&amp;lt;room&amp;gt;&lt;/div&gt;&lt;div&gt;+map(string mapSize, list&amp;lt;string&amp;gt; mapwall): void&lt;br&gt;&lt;/div&gt;&lt;div&gt;+drawMap(): void&lt;/div&gt;&lt;div&gt;+drawPath(): void&lt;/div&gt;&lt;div&gt;+drawWall(string oneWall): void&lt;/div&gt;" style="text;strokeColor=none;fillColor=none;align=left;verticalAlign=top;spacingLeft=4;spacingRight=4;overflow=hidden;rotatable=0;points=[[0,0.5],[1,0.5]];portConstraint=eastwest;whiteSpace=wrap;html=1;" vertex="1" parent="2tTRAXas-IIGPnDZ_Wnu-15">
          <mxGeometry y="118" width="170" height="152" as="geometry" />
        </mxCell>
        <mxCell id="2tTRAXas-IIGPnDZ_Wnu-19" value="Use" style="endArrow=open;endSize=12;dashed=1;html=1;rounded=0;entryX=0.5;entryY=0;entryDx=0;entryDy=0;" edge="1" parent="1" source="2tTRAXas-IIGPnDZ_Wnu-15" target="2tTRAXas-IIGPnDZ_Wnu-20">
          <mxGeometry width="160" relative="1" as="geometry">
            <mxPoint x="261" y="170" as="sourcePoint" />
            <mxPoint x="180" y="263" as="targetPoint" />
          </mxGeometry>
        </mxCell>
        <mxCell id="2tTRAXas-IIGPnDZ_Wnu-20" value="Room" style="swimlane;fontStyle=1;align=center;verticalAlign=top;childLayout=stackLayout;horizontal=1;startSize=26;horizontalStack=0;resizeParent=1;resizeParentMax=0;resizeLast=0;collapsible=1;marginBottom=0;whiteSpace=wrap;html=1;" vertex="1" parent="1">
          <mxGeometry x="-170" y="670" width="200" height="190" as="geometry" />
        </mxCell>
        <mxCell id="2tTRAXas-IIGPnDZ_Wnu-21" value="&lt;div&gt;-_pos: point2D&lt;/div&gt;&lt;div&gt;-_isWall: bool&lt;/div&gt;&lt;div&gt;-_paths: list&amp;lt;path&amp;gt; &lt;br&gt;&lt;/div&gt;" style="text;strokeColor=none;fillColor=none;align=left;verticalAlign=top;spacingLeft=4;spacingRight=4;overflow=hidden;rotatable=0;points=[[0,0.5],[1,0.5]];portConstraint=eastwest;whiteSpace=wrap;html=1;" vertex="1" parent="2tTRAXas-IIGPnDZ_Wnu-20">
          <mxGeometry y="26" width="200" height="54" as="geometry" />
        </mxCell>
        <mxCell id="2tTRAXas-IIGPnDZ_Wnu-22" value="" style="line;strokeWidth=1;fillColor=none;align=left;verticalAlign=middle;spacingTop=-1;spacingLeft=3;spacingRight=3;rotatable=0;labelPosition=right;points=[];portConstraint=eastwest;strokeColor=inherit;" vertex="1" parent="2tTRAXas-IIGPnDZ_Wnu-20">
          <mxGeometry y="80" width="200" height="8" as="geometry" />
        </mxCell>
        <mxCell id="2tTRAXas-IIGPnDZ_Wnu-23" value="&lt;div&gt;+&amp;lt;&amp;lt;get&amp;gt;&amp;gt;Pos: point2D&lt;br&gt;&lt;/div&gt;&lt;div&gt;+room(point2D ppos, bool wall)&lt;br&gt;&lt;/div&gt;&lt;div&gt;+&amp;lt;&amp;lt;get,set&amp;gt;&amp;gt;IsWall: bool&lt;br&gt;&lt;/div&gt;&lt;div&gt;+&amp;lt;&amp;lt;get,set&amp;gt;&amp;gt;Paths: list&amp;lt;path&amp;gt;&lt;/div&gt;&lt;div&gt;&lt;br&gt;&lt;/div&gt;" style="text;strokeColor=none;fillColor=none;align=left;verticalAlign=top;spacingLeft=4;spacingRight=4;overflow=hidden;rotatable=0;points=[[0,0.5],[1,0.5]];portConstraint=eastwest;whiteSpace=wrap;html=1;" vertex="1" parent="2tTRAXas-IIGPnDZ_Wnu-20">
          <mxGeometry y="88" width="200" height="102" as="geometry" />
        </mxCell>
        <mxCell id="2tTRAXas-IIGPnDZ_Wnu-24" value="Sanitise" style="swimlane;fontStyle=1;align=center;verticalAlign=top;childLayout=stackLayout;horizontal=1;startSize=26;horizontalStack=0;resizeParent=1;resizeParentMax=0;resizeLast=0;collapsible=1;marginBottom=0;whiteSpace=wrap;html=1;" vertex="1" parent="1">
          <mxGeometry x="620" y="230" width="170" height="220" as="geometry" />
        </mxCell>
        <mxCell id="2tTRAXas-IIGPnDZ_Wnu-25" value="-_... (....) : ...." style="text;strokeColor=none;fillColor=none;align=left;verticalAlign=top;spacingLeft=4;spacingRight=4;overflow=hidden;rotatable=0;points=[[0,0.5],[1,0.5]];portConstraint=eastwest;whiteSpace=wrap;html=1;" vertex="1" parent="2tTRAXas-IIGPnDZ_Wnu-24">
          <mxGeometry y="26" width="170" height="94" as="geometry" />
        </mxCell>
        <mxCell id="2tTRAXas-IIGPnDZ_Wnu-26" value="" style="line;strokeWidth=1;fillColor=none;align=left;verticalAlign=middle;spacingTop=-1;spacingLeft=3;spacingRight=3;rotatable=0;labelPosition=right;points=[];portConstraint=eastwest;strokeColor=inherit;" vertex="1" parent="2tTRAXas-IIGPnDZ_Wnu-24">
          <mxGeometry y="120" width="170" height="8" as="geometry" />
        </mxCell>
        <mxCell id="2tTRAXas-IIGPnDZ_Wnu-27" value="+......(....) : ....." style="text;strokeColor=none;fillColor=none;align=left;verticalAlign=top;spacingLeft=4;spacingRight=4;overflow=hidden;rotatable=0;points=[[0,0.5],[1,0.5]];portConstraint=eastwest;whiteSpace=wrap;html=1;" vertex="1" parent="2tTRAXas-IIGPnDZ_Wnu-24">
          <mxGeometry y="128" width="170" height="92" as="geometry" />
        </mxCell>
        <mxCell id="2tTRAXas-IIGPnDZ_Wnu-28" value="Use" style="endArrow=open;endSize=12;dashed=1;html=1;rounded=0;" edge="1" parent="1" source="2tTRAXas-IIGPnDZ_Wnu-15" target="2tTRAXas-IIGPnDZ_Wnu-24">
          <mxGeometry width="160" relative="1" as="geometry">
            <mxPoint x="240" y="449" as="sourcePoint" />
            <mxPoint x="135" y="540" as="targetPoint" />
          </mxGeometry>
        </mxCell>
        <mxCell id="2tTRAXas-IIGPnDZ_Wnu-29" value="Point2D" style="swimlane;fontStyle=1;align=center;verticalAlign=top;childLayout=stackLayout;horizontal=1;startSize=26;horizontalStack=0;resizeParent=1;resizeParentMax=0;resizeLast=0;collapsible=1;marginBottom=0;whiteSpace=wrap;html=1;" vertex="1" parent="1">
          <mxGeometry x="150" y="650" width="170" height="220" as="geometry" />
        </mxCell>
        <mxCell id="2tTRAXas-IIGPnDZ_Wnu-30" value="-_... (....) : ...." style="text;strokeColor=none;fillColor=none;align=left;verticalAlign=top;spacingLeft=4;spacingRight=4;overflow=hidden;rotatable=0;points=[[0,0.5],[1,0.5]];portConstraint=eastwest;whiteSpace=wrap;html=1;" vertex="1" parent="2tTRAXas-IIGPnDZ_Wnu-29">
          <mxGeometry y="26" width="170" height="94" as="geometry" />
        </mxCell>
        <mxCell id="2tTRAXas-IIGPnDZ_Wnu-31" value="" style="line;strokeWidth=1;fillColor=none;align=left;verticalAlign=middle;spacingTop=-1;spacingLeft=3;spacingRight=3;rotatable=0;labelPosition=right;points=[];portConstraint=eastwest;strokeColor=inherit;" vertex="1" parent="2tTRAXas-IIGPnDZ_Wnu-29">
          <mxGeometry y="120" width="170" height="8" as="geometry" />
        </mxCell>
        <mxCell id="2tTRAXas-IIGPnDZ_Wnu-32" value="+......(....) : ....." style="text;strokeColor=none;fillColor=none;align=left;verticalAlign=top;spacingLeft=4;spacingRight=4;overflow=hidden;rotatable=0;points=[[0,0.5],[1,0.5]];portConstraint=eastwest;whiteSpace=wrap;html=1;" vertex="1" parent="2tTRAXas-IIGPnDZ_Wnu-29">
          <mxGeometry y="128" width="170" height="92" as="geometry" />
        </mxCell>
        <mxCell id="2tTRAXas-IIGPnDZ_Wnu-34" value="Use" style="endArrow=open;endSize=12;dashed=1;html=1;rounded=0;" edge="1" parent="1" source="2tTRAXas-IIGPnDZ_Wnu-20" target="2tTRAXas-IIGPnDZ_Wnu-29">
          <mxGeometry width="160" relative="1" as="geometry">
            <mxPoint x="331" y="510" as="sourcePoint" />
            <mxPoint x="335" y="560" as="targetPoint" />
          </mxGeometry>
        </mxCell>
        <mxCell id="2tTRAXas-IIGPnDZ_Wnu-35" value="Path" style="swimlane;fontStyle=1;align=center;verticalAlign=top;childLayout=stackLayout;horizontal=1;startSize=26;horizontalStack=0;resizeParent=1;resizeParentMax=0;resizeLast=0;collapsible=1;marginBottom=0;whiteSpace=wrap;html=1;" vertex="1" parent="1">
          <mxGeometry x="200" y="920" width="170" height="220" as="geometry" />
        </mxCell>
        <mxCell id="2tTRAXas-IIGPnDZ_Wnu-36" value="-_... (....) : ...." style="text;strokeColor=none;fillColor=none;align=left;verticalAlign=top;spacingLeft=4;spacingRight=4;overflow=hidden;rotatable=0;points=[[0,0.5],[1,0.5]];portConstraint=eastwest;whiteSpace=wrap;html=1;" vertex="1" parent="2tTRAXas-IIGPnDZ_Wnu-35">
          <mxGeometry y="26" width="170" height="94" as="geometry" />
        </mxCell>
        <mxCell id="2tTRAXas-IIGPnDZ_Wnu-37" value="" style="line;strokeWidth=1;fillColor=none;align=left;verticalAlign=middle;spacingTop=-1;spacingLeft=3;spacingRight=3;rotatable=0;labelPosition=right;points=[];portConstraint=eastwest;strokeColor=inherit;" vertex="1" parent="2tTRAXas-IIGPnDZ_Wnu-35">
          <mxGeometry y="120" width="170" height="8" as="geometry" />
        </mxCell>
        <mxCell id="2tTRAXas-IIGPnDZ_Wnu-38" value="+......(....) : ....." style="text;strokeColor=none;fillColor=none;align=left;verticalAlign=top;spacingLeft=4;spacingRight=4;overflow=hidden;rotatable=0;points=[[0,0.5],[1,0.5]];portConstraint=eastwest;whiteSpace=wrap;html=1;" vertex="1" parent="2tTRAXas-IIGPnDZ_Wnu-35">
          <mxGeometry y="128" width="170" height="92" as="geometry" />
        </mxCell>
        <mxCell id="2tTRAXas-IIGPnDZ_Wnu-41" value="Use" style="endArrow=open;endSize=12;dashed=1;html=1;rounded=0;entryX=0.5;entryY=0;entryDx=0;entryDy=0;" edge="1" parent="1" source="2tTRAXas-IIGPnDZ_Wnu-1" target="2tTRAXas-IIGPnDZ_Wnu-15">
          <mxGeometry width="160" relative="1" as="geometry">
            <mxPoint x="177" y="170" as="sourcePoint" />
            <mxPoint x="-120" y="279" as="targetPoint" />
          </mxGeometry>
        </mxCell>
        <mxCell id="2tTRAXas-IIGPnDZ_Wnu-42" value="Use" style="endArrow=open;endSize=12;dashed=1;html=1;rounded=0;entryX=0.5;entryY=0;entryDx=0;entryDy=0;" edge="1" parent="1" source="2tTRAXas-IIGPnDZ_Wnu-1" target="2tTRAXas-IIGPnDZ_Wnu-24">
          <mxGeometry width="160" relative="1" as="geometry">
            <mxPoint x="310" y="170" as="sourcePoint" />
            <mxPoint x="325" y="240" as="targetPoint" />
          </mxGeometry>
        </mxCell>
        <mxCell id="2tTRAXas-IIGPnDZ_Wnu-43" value="Agent" style="swimlane;fontStyle=1;align=center;verticalAlign=top;childLayout=stackLayout;horizontal=1;startSize=26;horizontalStack=0;resizeParent=1;resizeParentMax=0;resizeLast=0;collapsible=1;marginBottom=0;whiteSpace=wrap;html=1;" vertex="1" parent="1">
          <mxGeometry x="580" y="670" width="170" height="220" as="geometry" />
        </mxCell>
        <mxCell id="2tTRAXas-IIGPnDZ_Wnu-44" value="-_... (....) : ...." style="text;strokeColor=none;fillColor=none;align=left;verticalAlign=top;spacingLeft=4;spacingRight=4;overflow=hidden;rotatable=0;points=[[0,0.5],[1,0.5]];portConstraint=eastwest;whiteSpace=wrap;html=1;" vertex="1" parent="2tTRAXas-IIGPnDZ_Wnu-43">
          <mxGeometry y="26" width="170" height="94" as="geometry" />
        </mxCell>
        <mxCell id="2tTRAXas-IIGPnDZ_Wnu-45" value="" style="line;strokeWidth=1;fillColor=none;align=left;verticalAlign=middle;spacingTop=-1;spacingLeft=3;spacingRight=3;rotatable=0;labelPosition=right;points=[];portConstraint=eastwest;strokeColor=inherit;" vertex="1" parent="2tTRAXas-IIGPnDZ_Wnu-43">
          <mxGeometry y="120" width="170" height="8" as="geometry" />
        </mxCell>
        <mxCell id="2tTRAXas-IIGPnDZ_Wnu-46" value="+......(....) : ....." style="text;strokeColor=none;fillColor=none;align=left;verticalAlign=top;spacingLeft=4;spacingRight=4;overflow=hidden;rotatable=0;points=[[0,0.5],[1,0.5]];portConstraint=eastwest;whiteSpace=wrap;html=1;" vertex="1" parent="2tTRAXas-IIGPnDZ_Wnu-43">
          <mxGeometry y="128" width="170" height="92" as="geometry" />
        </mxCell>
        <mxCell id="2tTRAXas-IIGPnDZ_Wnu-47" value="Use" style="endArrow=open;endSize=12;dashed=1;html=1;rounded=0;entryX=0.5;entryY=0;entryDx=0;entryDy=0;" edge="1" parent="1" source="2tTRAXas-IIGPnDZ_Wnu-1" target="2tTRAXas-IIGPnDZ_Wnu-43">
          <mxGeometry width="160" relative="1" as="geometry">
            <mxPoint x="310" y="170" as="sourcePoint" />
            <mxPoint x="325" y="240" as="targetPoint" />
          </mxGeometry>
        </mxCell>
        <mxCell id="2tTRAXas-IIGPnDZ_Wnu-49" value="UI" style="swimlane;fontStyle=1;align=center;verticalAlign=top;childLayout=stackLayout;horizontal=1;startSize=26;horizontalStack=0;resizeParent=1;resizeParentMax=0;resizeLast=0;collapsible=1;marginBottom=0;whiteSpace=wrap;html=1;" vertex="1" parent="1">
          <mxGeometry x="830" y="500" width="170" height="220" as="geometry" />
        </mxCell>
        <mxCell id="2tTRAXas-IIGPnDZ_Wnu-50" value="-_... (....) : ...." style="text;strokeColor=none;fillColor=none;align=left;verticalAlign=top;spacingLeft=4;spacingRight=4;overflow=hidden;rotatable=0;points=[[0,0.5],[1,0.5]];portConstraint=eastwest;whiteSpace=wrap;html=1;" vertex="1" parent="2tTRAXas-IIGPnDZ_Wnu-49">
          <mxGeometry y="26" width="170" height="94" as="geometry" />
        </mxCell>
        <mxCell id="2tTRAXas-IIGPnDZ_Wnu-51" value="" style="line;strokeWidth=1;fillColor=none;align=left;verticalAlign=middle;spacingTop=-1;spacingLeft=3;spacingRight=3;rotatable=0;labelPosition=right;points=[];portConstraint=eastwest;strokeColor=inherit;" vertex="1" parent="2tTRAXas-IIGPnDZ_Wnu-49">
          <mxGeometry y="120" width="170" height="8" as="geometry" />
        </mxCell>
        <mxCell id="2tTRAXas-IIGPnDZ_Wnu-52" value="+......(....) : ....." style="text;strokeColor=none;fillColor=none;align=left;verticalAlign=top;spacingLeft=4;spacingRight=4;overflow=hidden;rotatable=0;points=[[0,0.5],[1,0.5]];portConstraint=eastwest;whiteSpace=wrap;html=1;" vertex="1" parent="2tTRAXas-IIGPnDZ_Wnu-49">
          <mxGeometry y="128" width="170" height="92" as="geometry" />
        </mxCell>
        <mxCell id="2tTRAXas-IIGPnDZ_Wnu-53" value="Use" style="endArrow=open;endSize=12;dashed=1;html=1;rounded=0;" edge="1" parent="1" source="2tTRAXas-IIGPnDZ_Wnu-20" target="2tTRAXas-IIGPnDZ_Wnu-35">
          <mxGeometry width="160" relative="1" as="geometry">
            <mxPoint x="316" y="550" as="sourcePoint" />
            <mxPoint x="433" y="860" as="targetPoint" />
          </mxGeometry>
        </mxCell>
      </root>
    </mxGraphModel>
  </diagram>
</mxfile>
